<?xml version="1.0" standalone="no"?>
<!DOCTYPE svg PUBLIC "-//W3C//DTD SVG 20010904//EN"
 "http://www.w3.org/TR/2001/REC-SVG-20010904/DTD/svg10.dtd">
<svg version="1.0" xmlns="http://www.w3.org/2000/svg"
 width="112.000000pt" height="118.000000pt" viewBox="0 0 112.000000 118.000000"
 preserveAspectRatio="xMidYMid meet">

<g transform="translate(0.000000,118.000000) scale(0.100000,-0.100000)"
fill="#000000" stroke="none">
<path d="M304 775 c-4 -8 -4 -22 0 -30 5 -13 44 -15 298 -13 l293 3 0 25 0 25
-293 3 c-254 2 -293 0 -298 -13z"/>
<path d="M224 605 c-4 -8 -4 -22 0 -30 5 -13 49 -15 338 -13 l333 3 0 25 0 25
-333 3 c-289 2 -333 0 -338 -13z"/>
<path d="M484 435 c-4 -8 -4 -22 0 -30 5 -13 34 -15 208 -13 l203 3 0 25 0 25
-203 3 c-174 2 -203 0 -208 -13z"/>
</g>
</svg>
