<?xml version="1.0" encoding="utf-8"?>
<!-- Svg Vector Icons : http://www.onlinewebfonts.com/icon -->
<!DOCTYPE svg PUBLIC "-//W3C//DTD SVG 1.1//EN" "http://www.w3.org/Graphics/SVG/1.1/DTD/svg11.dtd">
<svg version="1.1" xmlns="http://www.w3.org/2000/svg" xmlns:xlink="http://www.w3.org/1999/xlink" x="0px" y="0px" viewBox="0 0 1000 1000" enable-background="new 0 0 1000 1000" xml:space="preserve">
<metadata> Svg Vector Icons : http://www.onlinewebfonts.com/icon </metadata>
<g><g transform="translate(0.000000,512.000000) scale(0.100000,-0.100000)"><path d="M4862.7,4993.7c-183.9-40.2-341-132.2-503.9-297c-151.4-151.3-268.2-342.9-335.3-555.6c-19.2-57.5-36.4-107.3-38.3-111.1c-3.8-3.8-61.3,34.5-128.4,84.3c-164.8,122.6-433,247.1-639.9,297c-145.6,34.5-208.8,38.3-438.7,30.7c-388.9-13.4-661-99.6-975.2-308.5C1113.3,3675.6,703.3,2734.9,743.5,1706l9.6-279.7l-90-95.8C325.9,970.3,375.7,399.4,772.3,117.8c237.6-170.5,555.6-203.1,814.3-80.5c327.6,151.4,519.2,511.5,459.8,858.3c-42.1,239.5-187.8,457.9-385.1,567.1l-103.5,59.4l11.5,90c38.3,281.7,143.7,515.4,308.5,680.2c139.9,141.8,235.7,191.6,365.9,189.7c122.6,0,222.2-59.4,298.9-178.2c84.3-132.2,107.3-249.1,118.8-586.3c5.8-168.6,23-356.4,36.4-417.7l28.7-111.1l-84.3-97.7c-143.7-168.6-168.6-321.9-115-685.9c49.8-318,151.4-563.3,297-705c61.3-61.3,74.7-90.1,95.8-214.6c55.6-318,229.9-800.8,438.7-1216.6c97.7-191.6,107.3-224.2,115-365.9c9.6-174.4-23-321.9-95.8-429.2c-42.1-59.4-57.5-65.1-264.4-107.3c-754.9-151.4-1406.3-434.9-1898.7-825.8c-189.7-151.3-247.2-258.7-247.2-454.1c1.9-214.6,99.6-383.2,274-473.2c84.3-44.1,388.9-109.2,837.3-178.2c2042.4-318,4425.8-281.6,6389.6,95.8c341,67.1,457.9,139.9,547.9,343c95.8,212.7,36.4,452.2-149.5,622.7c-436.8,398.5-1254.9,752.9-2036.6,883.2c-78.6,13.4-157.1,34.5-176.3,49.8c-17.2,15.3-51.7,72.8-74.7,126.4c-38.3,82.4-44.1,132.2-46,300.8c0,199.3,0,203.1,80.5,356.4c193.5,375.5,398.5,931.1,457.9,1243.4c30.7,155.2,40.2,180.1,114.9,260.6c183.9,201.2,297,547.9,302.7,927.3c1.9,206.9-1.9,239.5-42.1,316.1c-24.9,47.9-70.9,113-101.5,145.6c-51.7,53.6-55.6,63.2-34.5,115c15.3,34.5,28.7,210.8,34.5,469.4l11.5,413.8l67.1,132.2c88.1,170.5,185.8,245.2,331.5,245.2c132.2,1.9,226.1-46,367.9-189.7c138-136,222.2-298.9,277.8-528.8c53.6-226.1,53.6-228-59.4-295c-53.6-30.7-137.9-99.6-185.8-153.3c-291.2-321.9-279.7-808.5,28.7-1117C8395.7-12.5,8700.3-87.2,8991.6,0.9c570.9,172.4,758.7,889,348.7,1325.8l-86.2,92v398.5c0,425.3-21.1,593.9-118.8,973.3c-162.9,634.2-463.7,1072.9-925.4,1350.7c-323.8,193.5-605.4,274-967.5,274c-356.3,1.9-622.7-59.4-913.9-206.9c-74.7-38.3-136-67.1-138-63.2c-3.8,3.8-42.1,74.7-86.2,159c-208.8,392.8-519.2,643.7-864.1,697.4C5083.1,5028.2,5010.3,5026.3,4862.7,4993.7z M5380.1,4624c394.7-195.4,701.2-852.6,800.8-1716.7c26.8-222.2,55.6-285.5,139.9-306.5c72.8-17.2,143.7,19.2,172.4,88.1c19.2,47.9,21.1,101.5,9.6,216.5c-23,203.1-105.4,632.3-151.4,779.8c-46,145.6-38.3,157.1,160.9,254.8c191.6,93.9,404.2,143.7,662.9,157.1c256.7,11.5,413.8-15.3,639.9-109.2c609.2-254.8,959.9-787.4,1092.1-1657.3c57.5-387,57.5-553.7,0-952.2c-13.4-97.7-21.1-84.3,162.9-241.4c295-247.2,191.6-728-178.2-837.3c-118.8-36.4-153.3-36.4-277.8,1.9c-205,59.4-346.8,251-346.8,463.7c0,206.9,90,352.5,274,444.5c63.2,30.7,126.5,57.5,139.9,57.5c168.6,0,55.6,708.9-166.7,1053.8c-318.1,494.3-841.1,626.5-1195.5,302.7c-191.6-174.3-295.1-461.7-297-814.3v-174.3l-99.6-23c-195.4-42.1-639.9-113-896.6-141.8c-1164.9-134.1-2157.3-51.7-2912.2,239.5l-143.7,55.6l-1.9,157.1c-1.9,281.6-109.2,540.3-289.3,705c-427.2,390.8-1086.3,93.9-1331.6-597.8c-61.3-174.3-111.1-433-111.1-578.6c0-99.6,38.3-183.9,82.4-183.9c49.8,0,218.4-93.9,279.7-155.2c93.9-92,136-197.3,136-339.1c0-218.4-141.8-410-346.8-471.3c-124.5-38.3-159-38.3-277.8-1.9C914.1,357.2,757,560.3,757,757.7c0,191.6,47.9,270.1,298.9,486.6c46,42.1,49.8,53.7,38.3,134.1c-57.5,396.6-57.5,569,0,942.6c95.8,624.6,394.7,1180.2,798.9,1486.7c180.1,136,434.9,251,655.2,297c465.6,97.7,906.2-32.6,1281.7-381.3l88.1-80.5v-182v-182l-124.5-122.6c-411.9-404.2-314.2-1057.6,197.3-1308.6c141.8-70.9,151.4-72.8,356.4-72.8c197.3,0,222.2,3.8,337.2,59.4c159,74.7,254.8,159,346.8,300.8c218.4,339.1,139.9,827.7-174.3,1061.4c-51.7,38.3-95.8,82.4-95.8,93.9c0,44.1,126.5,208.8,185.8,243.3c55.6,30.7,70.9,32.6,130.3,11.5c59.4-21.1,76.6-21.1,120.7,3.8c113,63.2,120.7,195.4,17.3,274c-80.5,59.4-268.2,65.1-381.3,11.5c-120.7-55.6-272.1-222.2-344.9-373.6c-49.8-107.3-57.5-143.7-49.8-235.7c9.6-99.6,15.3-113,92-176.3c247.1-201.2,306.5-297,306.5-490.5c-1.9-185.8-90-329.5-252.9-421.5c-132.2-72.8-325.7-78.5-448.3-13.4c-183.9,97.7-275.9,245.2-275.9,446.4c0,151.4,44.1,256.7,145.6,346.8c224.2,201.2,235.7,229.9,235.7,563.3c0,312.3,40.2,505.8,151.4,728c111.1,224.2,249.1,362.1,440.7,444.5c92,38.3,134.1,44.1,266.3,38.3C5228.7,4685.3,5278.5,4673.8,5380.1,4624z M3151.8,1355.4c191.6-69,569-157.1,871.7-203.1c341-53.6,1185.9-72.8,1611.3-40.2c350.6,26.8,800.9,84.3,1115.1,143.7l237.6,42.2l-13.4-47.9c-40.2-157.1-38.3-166.7,63.2-274c126.5-136,137.9-162.9,137.9-321.9c0-314.2-107.3-615-270.1-766.4c-97.7-90-97.7-92-124.5-260.6c-46-316.1-180.1-705-400.4-1166.8c-116.9-247.1-118.8-249.1-289.3-390.8c-191.6-159-406.2-304.6-628.4-425.3c-147.5-78.6-151.3-80.5-245.2-57.5c-126.4,28.7-277.8,26.8-383.2-5.7c-78.5-23-99.6-21.1-185.8,9.6c-182,63.2-438.7,233.7-764.4,503.9c-122.6,103.4-151.4,139.9-235.7,306.5c-205,402.3-379.3,896.7-425.3,1205.1L3195.9-206L3081-96.8C2956.4,22,2904.7,129.3,2854.9,364.9c-23,116.9-38.3,316.1-30.7,415.8c0,23,53.7,99.6,116.9,168.6c130.3,143.7,136,183.9,65.1,419.6C2992.8,1411,2998.6,1411,3151.8,1355.4z M3964.2-2372.9c241.4-174.3,452.2-295.1,601.6-343c138-46,205-46,383.2-5.7c47.9,11.5,113.1,11.5,162.9,0c185.8-38.3,214.6-38.3,320,1.9c139.9,51.7,410,208.8,611.2,350.6c88.2,61.3,160.9,111.1,162.9,107.3c1.9-3.8,13.4-57.5,26.8-120.7c11.5-63.2,53.7-178.2,90.1-252.9l69-139.9l-44.1-59.4c-115-157.1-429.2-331.5-737.6-413.8c-229.9-59.4-708.9-82.4-967.5-46c-400.4,57.5-844.9,272-992.4,480.9l-38.3,51.7l69,132.2c36.4,72.8,76.6,185.8,90,252.9c11.5,65.1,24.9,118.8,28.7,118.8C3803.3-2258,3878-2309.7,3964.2-2372.9z M3523.5-3141.2c183.9-174.4,511.6-337.2,837.3-415.8c597.8-147.5,1228.1-88.1,1732,159c241.4,118.8,398.5,235.7,511.6,381.3l78.5,101.5l145.6-26.8c436.8-80.5,942.6-249.1,1266.4-421.5c287.4-153.3,592-375.5,630.4-457.9c51.7-115-5.8-256.7-116.9-293.2c-260.6-82.4-1362.2-233.7-2199.5-302.7c-525-42.2-2188-47.9-2701.4-9.6c-890.9,67.1-2101.8,231.8-2306.8,314.2c-69,26.8-126.5,120.7-126.5,205c0,84.3,109.2,193.5,348.7,352.5c404.3,270.1,910.1,473.2,1484.8,597.8l206.9,44.1l57.5-70.9C3402.8-3022.4,3469.9-3093.3,3523.5-3141.2z"/><path d="M4038.9,922.4c-195.4-40.2-427.2-208.8-427.2-314.2c0-26.8,21.1-70.9,46-99.6c57.5-67.1,160.9-72.8,226.1-13.4c67.1,63.2,206.9,120.7,293.1,120.7c69,0,149.4-32.6,321.9-126.4c166.7-92,306.5,130.3,164.8,258.6c-80.5,72.8-243.3,151.3-364,174.3C4186.4,943.5,4152,943.5,4038.9,922.4z"/><path d="M5364.7,765.3c-61.3-32.6-86.2-74.7-86.2-143.7c0-111.1,132.2-197.3,302.7-197.3c49.8,0,61.3-7.7,61.3-38.3c0-61.3,84.3-134.1,153.3-134.1c109.2,0,189.7,65.1,191.6,155.2c0,42.1,11.5,53.6,63.2,63.2c34.5,5.8,90.1,1.9,124.5-9.6c115-40.2,243.3,78.5,203.1,189.7c-46,130.3-201.2,160.9-559.5,109.2c-208.8-28.7-233.8-28.7-300.8-1.9C5433.7,794.1,5416.5,794.1,5364.7,765.3z"/><path d="M4100.2,556.5c-61.3-34.5-86.2-76.6-86.2-145.6c0-149.4,178.2-212.7,289.3-103.5c67.1,67.1,70.9,134.1,13.4,203.1C4266.9,566.1,4159.6,589.1,4100.2,556.5z"/><path d="M4387.6-1131.4c-93.9-49.8-116.9-166.7-47.9-241.4c51.7-55.6,193.5-126.4,335.3-168.6c157.1-46,494.3-46,651.4,0c141.8,42.2,283.6,113,335.3,168.6c49.8,53.6,49.8,149.4,0,203.1c-67.1,72.8-116.9,70.9-279.7-9.6c-149.4-72.8-153.3-72.8-381.3-72.8c-226.1,0-231.8,1.9-377.4,72.8C4464.2-1102.7,4445.1-1098.8,4387.6-1131.4z"/></g></g>
</svg>